<?xml version="1.0" standalone="no"?>
<!DOCTYPE svg PUBLIC "-//W3C//DTD SVG 20010904//EN"
 "http://www.w3.org/TR/2001/REC-SVG-20010904/DTD/svg10.dtd">
<svg version="1.0" xmlns="http://www.w3.org/2000/svg"
 width="219.000000pt" height="230.000000pt" viewBox="0 0 219.000000 230.000000"
 preserveAspectRatio="xMidYMid meet">
<metadata>
Created by potrace 1.16, written by Peter Selinger 2001-2019
</metadata>
<g transform="translate(0.000000,230.000000) scale(0.100000,-0.100000)"
fill="#000000" stroke="none">
<path d="M595 2018 c-275 -99 -504 -183 -508 -187 -10 -10 193 -1222 207
-1238 14 -15 787 -433 802 -433 24 0 799 429 806 446 9 24 212 1224 207 1228
-2 1 -197 71 -434 156 -236 84 -464 165 -505 180 l-75 27 -500 -179z m928
-123 c232 -86 422 -157 424 -159 3 -3 -159 -975 -172 -1032 -3 -15 -90 -67
-337 -200 -183 -98 -337 -179 -343 -179 -5 0 -160 81 -343 179 -246 133 -334
185 -337 200 -22 95 -174 1031 -168 1034 71 29 832 310 842 311 8 0 203 -69
434 -154z"/>
<path d="M812 1393 c-154 -340 -284 -626 -288 -635 -6 -16 2 -18 83 -18 l89 0
58 125 59 125 282 0 282 0 59 -125 58 -125 88 0 c48 0 88 3 88 6 0 5 -542
1199 -564 1242 -11 21 -39 -36 -294 -595z m464 -200 l6 -23 -186 0 c-140 0
-186 3 -186 12 0 7 42 100 92 207 l93 194 88 -183 c48 -101 90 -194 93 -207z"/>
</g>
</svg>
